<svg preserveAspectRatio="none" width="100%" height="100%" overflow="visible" style="display: block;" viewBox="0 0 495 330" fill="none" xmlns="http://www.w3.org/2000/svg">
<g id="white bg monogram">
<g id="white bg" filter="url(#filter0_d_13884_3245)">
<rect x="3" y="1" width="487" height="322" fill="var(--fill-0, #FAFAFA)"/>
</g>
<path id="Monogram" d="M64.9527 223.599V293.282C45.6446 293.252 30 277.657 30 258.44C30 239.194 45.6446 223.599 64.9527 223.599ZM134.137 278.645C122.907 278.645 115.7 268.857 115.7 258.32C115.7 247.784 122.937 238.355 134.047 238.355C141.734 238.355 147.95 243.264 150.653 250.269H169C168.339 246.288 166.598 242.426 164.376 239.074C157.499 228.717 146.569 223 134.137 223C118.072 223 104.56 232.938 99.9054 247.305V223.599C80.5973 223.599 64.9527 239.194 64.9527 258.44C64.9527 277.687 80.5973 293.282 99.9054 293.282V269.485C104.59 283.913 118.253 294 134.318 294C150.923 294 165.006 283.284 169 267.091H150.653C147.59 273.825 141.825 278.645 134.137 278.645Z" fill="var(--fill-0, black)"/>
</g>
<defs>
<filter id="filter0_d_13884_3245" x="0" y="0" width="495" height="330" filterUnits="userSpaceOnUse" color-interpolation-filters="sRGB">
<feFlood flood-opacity="0" result="BackgroundImageFix"/>
<feColorMatrix in="SourceAlpha" type="matrix" values="0 0 0 0 0 0 0 0 0 0 0 0 0 0 0 0 0 0 127 0" result="hardAlpha"/>
<feOffset dx="1" dy="3"/>
<feGaussianBlur stdDeviation="2"/>
<feColorMatrix type="matrix" values="0 0 0 0 0 0 0 0 0 0 0 0 0 0 0 0 0 0 0.15 0"/>
<feBlend mode="normal" in2="BackgroundImageFix" result="effect1_dropShadow_13884_3245"/>
<feBlend mode="normal" in="SourceGraphic" in2="effect1_dropShadow_13884_3245" result="shape"/>
</filter>
</defs>
</svg>
